# xmcd
#
# Track frame offsets:
# 150
# 15444
# 25400
# 37522
# 57295
# 60680
# 93287
# 99149
# 107626
#
# Disc length: 3386 seconds
#
# Revision: 0
# Processed by: cddbd v1.5PL3 Copyright (c) Steve Scherf et al.
# Submitted via: Axialis_AX_CDPlayer 2.6
#
DISCID=5b0d3809
DTITLE=Jimi Hendrix - Out In The Sun
DYEAR=1900
DGENRE=
TTITLE0=South Saturn Delta
TTITLE1=Three Little Bears
TTITLE2=Gypsy Eyes
TTITLE3=1983... (A Merman I Should Turn To Be)
TTITLE4=Our Lovely Home
TTITLE5=My Friend
TTITLE6=All Along The Watchtower
TTITLE7=Bright Lights, Big City
TTITLE8=Acoustic Jam With Mitch
EXTD=
EXTT0=
EXTT1=
EXTT2=
EXTT3=
EXTT4=
EXTT5=
EXTT6=
EXTT7=
EXTT8=
PLAYORDER=
